<mxfile host="app.diagrams.net" modified="2023-06-30T12:20:44.163Z" agent="Mozilla/5.0 (Windows NT 10.0; Win64; x64) AppleWebKit/537.36 (KHTML, like Gecko) Chrome/114.0.0.0 Safari/537.36 Edg/114.0.1823.58" etag="Kzht5WUGLJL4W9iNGSQj" version="21.5.2" type="github">
  <diagram name="Page-1" id="VjMCwNSxrgK5S_cIAwly">
    <mxGraphModel dx="874" dy="479" grid="1" gridSize="10" guides="1" tooltips="1" connect="1" arrows="1" fold="1" page="1" pageScale="1" pageWidth="850" pageHeight="1100" math="0" shadow="0">
      <root>
        <mxCell id="0" />
        <mxCell id="1" parent="0" />
        <mxCell id="wFbLZNj1poOO6xzd1dtZ-2" value="&lt;font color=&quot;#ffffff&quot;&gt;Data Warehouse&lt;/font&gt;" style="rounded=0;whiteSpace=wrap;html=1;fillColor=#812BD6;" vertex="1" parent="1">
          <mxGeometry x="531" y="490" width="120" height="60" as="geometry" />
        </mxCell>
        <mxCell id="wFbLZNj1poOO6xzd1dtZ-3" value="" style="edgeStyle=orthogonalEdgeStyle;rounded=0;orthogonalLoop=1;jettySize=auto;html=1;" edge="1" parent="1" source="wFbLZNj1poOO6xzd1dtZ-4" target="wFbLZNj1poOO6xzd1dtZ-8">
          <mxGeometry relative="1" as="geometry" />
        </mxCell>
        <mxCell id="wFbLZNj1poOO6xzd1dtZ-4" value="User Clicks Storage" style="rounded=0;whiteSpace=wrap;html=1;fillColor=#FFD859;" vertex="1" parent="1">
          <mxGeometry x="321" y="360" width="120" height="60" as="geometry" />
        </mxCell>
        <mxCell id="wFbLZNj1poOO6xzd1dtZ-5" value="" style="edgeStyle=orthogonalEdgeStyle;rounded=0;orthogonalLoop=1;jettySize=auto;html=1;" edge="1" parent="1" source="wFbLZNj1poOO6xzd1dtZ-6" target="wFbLZNj1poOO6xzd1dtZ-4">
          <mxGeometry relative="1" as="geometry" />
        </mxCell>
        <mxCell id="wFbLZNj1poOO6xzd1dtZ-6" value="ETL" style="rounded=0;whiteSpace=wrap;html=1;fillColor=#812BD6;" vertex="1" parent="1">
          <mxGeometry x="111" y="360" width="120" height="60" as="geometry" />
        </mxCell>
        <mxCell id="wFbLZNj1poOO6xzd1dtZ-7" value="" style="edgeStyle=orthogonalEdgeStyle;rounded=0;orthogonalLoop=1;jettySize=auto;html=1;" edge="1" parent="1" source="wFbLZNj1poOO6xzd1dtZ-8" target="wFbLZNj1poOO6xzd1dtZ-2">
          <mxGeometry relative="1" as="geometry" />
        </mxCell>
        <mxCell id="wFbLZNj1poOO6xzd1dtZ-8" value="&lt;font color=&quot;#ffffff&quot;&gt;Data Ingestion Service&lt;/font&gt;" style="rounded=0;whiteSpace=wrap;html=1;fillColor=#812BD6;" vertex="1" parent="1">
          <mxGeometry x="531" y="360" width="120" height="60" as="geometry" />
        </mxCell>
      </root>
    </mxGraphModel>
  </diagram>
</mxfile>
